<svg xmlns="http://www.w3.org/2000/svg"><symbol viewBox="0 0 22 12" id="icon-vk-mobile"><path d="M17.6 12c-.3 0-.9-.1-1.5-.5-.5-.3-.9-.7-1.3-1.2-.3-.3-.9-.9-1.1-.9-.2.1-.4.7-.3 1.2 0 .1 0 .6-.3.9-.3.3-.8.4-.9.4h-1.4c-.7 0-3.2-.2-5.4-2.3C2.5 7.1.2 2.2.1 2 0 1.6-.1 1.2.2.9c.3-.3.8-.4 1-.4h3.1c.1 0 .4.1.7.3.3.2.4.5.5.6 0 0 .5 1.1 1.1 2 1 1.5 1.4 1.9 1.5 2 .1-.4.2-1.4.1-2.3 0-.4-.1-.8-.2-1-.1-.1-.3-.2-.5-.2l-.6-.5c0-.5.5-.9.9-1.1.5-.2 1.3-.3 2.3-.3h.5c.9 0 1.2.1 1.6.1 1.2.3 1.2 1.3 1.1 2.5v1.6c0 .3 0 .8.1 1 .2-.1.6-.5 1.5-1.9.6-.9 1-1.9 1.1-2.1.1-.3.4-.7 1.2-.7h3.4c.7 0 1.2.2 1.3.7.2.5.1 1.3-1.7 3.5-.3.3-.5.6-.7.9-.5.4-.9 1-.9 1.1 0 .1.5.5.9.9 1.1.9 1.9 1.7 2.2 2.3.4.6.3 1 .2 1.3-.3.7-1.2.7-1.4.8h-2.9zm-3.9-3.7c.7 0 1.2.6 1.8 1.2.4.4.7.8 1.1 1 .5.3 1 .3 1 .3h2.9c.1 0 .3-.1.4-.1 0 0 0-.1-.1-.1-.3-.5-1-1.3-2-2.1-.9-.7-1.3-1.1-1.4-1.7 0-.6.4-1.1 1.2-2.1.2-.2.4-.5.7-.8 1.1-1.4 1.4-2 1.5-2.3h-3.9c0 .4-.5 1.5-1.1 2.4-1.4 2.1-2 2.4-2.5 2.4-.1 0-.3 0-.4-.1-.7-.4-.7-1.4-.7-2.1V2.6c.1-1.3 0-1.3-.3-1.4-.3-.1-.5-.1-1.4-.1H10c-.5 0-1 0-1.4.1l.2.2c.4.5.4 1.5.4 1.7.1 1.3 0 2.9-.7 3.3-.1 0-.2.1-.4.1-.6 0-1.3-.7-2.5-2.5C5 2.9 4.5 1.8 4.5 1.8s0-.1-.1-.1-.2-.1-.2-.1h-3c.4.9 2.5 5 4.8 7.2 2 1.9 4.3 2 4.7 2h1.4s.2 0 .2-.1v-.1c0-.2 0-2 1.2-2.3h.2z"/></symbol><symbol id="htmlacademy"><path d="M30.2 5H30L10.3 7.1v36.2L30 55l19.7-11.7V7.1L30.2 5zm17 36.8L30 52 12.8 41.8V27l17.1 10.2V39l-11.7-7v1.8L30 40.9v1.9l-11.8-7v1.8l11.8 7 11.9-7.1v-7.6l5.3-3.2v15.1zm-.1-17l-4.7 2.8-2.2 1.3-10.3-6.1v1.8l8.8 5.3h-.1l-.2.1-1.3.7-7.3-4.3v1.8l5.8 3.4-1.4.9-4.3-2.6v1.8l2.9 1.7-2.9 1.7-17-10.1 17-10.2 17.2 10zm.1-1.8L29.9 12.8 12.8 23V9.4L30 7.6l17.2 1.8V23z"/></symbol><symbol viewBox="-3 -3 23 23" id="icon-insta"><path d="M14.002-1.501C16.482-1.501 18.5.519 18.5 3v11c0 2.481-2.018 4.5-4.498 4.5H3.01A4.504 4.504 0 0 1-1.488 14V3C-1.488.519.53-1.5 3.01-1.5h10.992m0-1.5H3.01C-.29-3-2.987-.301-2.987 3v11.001C-2.987 17.299-.29 20 3.01 20h10.995C17.301 20 20 17.299 20 13.999V3c0-3.301-2.699-6-5.998-6z"/><path d="M8.506 4.078a4.434 4.434 0 0 1 4.429 4.428c0 2.44-1.989 4.43-4.429 4.43a4.434 4.434 0 0 1-4.428-4.43 4.431 4.431 0 0 1 4.428-4.428m0-1.5a5.929 5.929 0 0 0 0 11.855c3.274 0 5.926-2.653 5.926-5.927S11.78 2.578 8.506 2.578z"/><circle cx="14.646" cy="2.379" r="1.341"/></symbol><symbol viewBox="34.789 -4.709 13.518 27.75" id="icon-fb"><path d="M44.32 23.041h-6.816V10.137h-2.715V3.763h2.629c-.202-2.887.298-5 1.519-6.444 1.039-1.229 2.583-1.911 4.588-2.026l4.782-.001v6.15h-3.755c-.166.315-.251 1.093-.252 2.321h3.978v6.375H44.32v12.903zm-5.316-1.5h3.816V8.637h3.957V5.263h-3.953l-.016-.734c-.044-2.04.002-3.784 1.007-4.46l.19-.127h2.801v-3.15h-3.239c-1.557.091-2.711.581-3.485 1.496-1.041 1.231-1.41 3.298-1.099 6.144l.092.832h-2.786v3.375h2.715v12.902z"/></symbol></svg>